<svg width="76" height="67" viewBox="0 0 76 67" fill="none" xmlns="http://www.w3.org/2000/svg">
<path d="M71.7113 44H4.28871C1.89501 44 0 45.971 0 48.2376V51.6868C0 53.9534 1.89501 55.8258 4.28871 55.8258H5.28609V56.8113C5.28609 62.2315 9.77428 66.5676 15.1601 66.5676H60.8399C66.3255 66.5676 70.7139 62.1329 70.7139 56.8113V55.8258H71.7113C74.0053 55.8258 76 53.9534 76 51.5882V48.139C76 45.971 74.105 44 71.7113 44ZM67.8215 56.8113C67.8215 60.5562 64.7297 63.6112 60.9396 63.6112H15.0604C11.2703 63.6112 8.17848 60.5562 8.17848 56.8113V55.8258H67.8215V56.8113ZM73.0079 51.5882C73.0079 52.2781 72.4095 52.8694 71.7113 52.8694H4.28871C3.59055 52.8694 2.99213 52.2781 2.99213 51.5882V48.139C2.99213 47.5478 3.59055 46.9565 4.28871 46.9565H71.811C72.5092 46.9565 73.1076 47.5477 73.1076 48.2376V51.5882H73.0079Z" fill="#81B3D2"/>
<path d="M16.1575 37.3496L21.5434 41.2915L27.0289 37.3496L32.5145 41.2915L38 37.3496L43.3859 41.2915L48.8714 37.3496L54.357 41.2915L59.8426 37.3496L65.3281 41.2915L71.6116 36.6597L69.9161 34.2946L65.3281 37.5467L59.8426 33.6047L54.357 37.5467L48.8714 33.6047L43.3859 37.5467L38 33.6047L32.5145 37.5467L27.0289 33.6047L21.5434 37.5467L16.1575 33.6047L10.672 37.5467L6.08403 34.2946L4.28876 36.6597L10.672 41.2915L16.1575 37.3496Z" fill="#81B3D2"/>
<path d="M70.7138 30.6486C70.7138 30.0573 70.8136 28.0864 70.7138 27.6922C70.0157 12.3186 55.6535 0 37.9999 0C20.3464 0 5.88444 12.3186 5.18628 27.6922C5.18628 28.0864 5.18628 30.0573 5.18628 30.6486H70.7138ZM37.9999 2.95646C53.9579 2.95646 67.1233 13.9939 67.7217 27.6922H8.17841C8.87657 13.9939 22.0419 2.95646 37.9999 2.95646Z" fill="#81B3D2"/>
<path d="M38 16.7532C39.1017 16.7532 39.9948 15.8708 39.9948 14.7823C39.9948 13.6937 39.1017 12.8113 38 12.8113C36.8983 12.8113 36.0052 13.6937 36.0052 14.7823C36.0052 15.8708 36.8983 16.7532 38 16.7532Z" fill="#81B3D2"/>
<path d="M30.021 11.924C31.1227 11.924 32.0157 11.0416 32.0157 9.95303C32.0157 8.86449 31.1227 7.98206 30.021 7.98206C28.9193 7.98206 28.0262 8.86449 28.0262 9.95303C28.0262 11.0416 28.9193 11.924 30.021 11.924Z" fill="#81B3D2"/>
<path d="M45.979 11.924C47.0807 11.924 47.9738 11.0416 47.9738 9.95303C47.9738 8.86449 47.0807 7.98206 45.979 7.98206C44.8773 7.98206 43.9843 8.86449 43.9843 9.95303C43.9843 11.0416 44.8773 11.924 45.979 11.924Z" fill="#81B3D2"/>
</svg>
